
<svg xmlns="http://www.w3.org/2000/svg" viewBox="1270 290 30 40" fill="none">
<path d="M1282.88 303.406C1282.55 303.406 1282.22 303.433 1281.88 303.487C1278.11 304.091 1274.7 307.828 1275.53 313.038C1276.36 318.248 1281.23 321.188 1285.04 320.581C1286.85 320.289 1288.21 319.345 1289.08 317.767C1290.02 316.058 1290.31 313.679 1289.89 311.073C1289.48 308.513 1288.41 306.349 1286.86 304.973C1285.7 303.939 1284.34 303.406 1282.88 303.406ZM1283.93 326.071C1277.36 326.071 1271.31 320.883 1270.19 313.893C1268.97 306.233 1273.73 299.317 1281.03 298.148C1284.47 297.6 1287.82 298.588 1290.45 300.934C1292.93 303.135 1294.62 306.434 1295.23 310.216C1295.84 314.062 1295.35 317.574 1293.81 320.372C1292.15 323.4 1289.34 325.367 1285.89 325.916C1285.24 326.022 1284.58 326.071 1283.93 326.071Z" fill="black"/>
</svg>
