
<svg xmlns="http://www.w3.org/2000/svg" viewBox="190 330 40 40" fill="none">
<path d="M211.877 344.406C211.549 344.406 211.216 344.433 210.882 344.487C207.106 345.091 203.697 348.828 204.531 354.038C205.363 359.248 210.226 362.188 214.04 361.581C215.852 361.289 217.21 360.345 218.077 358.767C219.019 357.058 219.308 354.679 218.893 352.073C218.481 349.513 217.408 347.349 215.86 345.973C214.698 344.939 213.335 344.406 211.877 344.406ZM212.933 367.071C206.364 367.071 200.309 361.883 199.192 354.893C197.967 347.233 202.727 340.317 210.027 339.148C213.473 338.6 216.817 339.588 219.452 341.934C221.926 344.135 223.623 347.434 224.229 351.216C224.845 355.062 224.355 358.574 222.814 361.372C221.148 364.4 218.337 366.367 214.891 366.916C214.236 367.022 213.584 367.071 212.933 367.071Z" fill="black"/>
</svg>
